# xmcd
#
# Track frame offsets:
#   150
#   25330
#   52215
#   69525
#   85804
#   101823
#   116192
#   132644
#   153434
#   180603
#   196498
#   213144
#   229073
#   251109
#   269116
#   286173
#   303943
#   323165
#
# Disc length: 4617 seconds
#
# Revision: 0
# Processed by: cddbd v1.5.1PL2 Copyright (c) Steve Scherf et al.
# Submitted via: uFREEDB ActiveX Control 1.5
#
DISCID=15120712
DTITLE=a - a
DYEAR=2000
DGENRE=Blues
TTITLE0=15
TTITLE1=1
TTITLE2=155
TTITLE3=3
TTITLE4=2
TTITLE5=4
TTITLE6=6
TTITLE7=5
TTITLE8=7
TTITLE9=8
TTITLE10=9
TTITLE11=10
TTITLE12=11
TTITLE13=12
TTITLE14=13
TTITLE15=14
TTITLE16=17
TTITLE17=18
EXTD=
EXTT0=
EXTT1=
EXTT2=
EXTT3=
EXTT4=
EXTT5=
EXTT6=
EXTT7=
EXTT8=
EXTT9=
EXTT10=
EXTT11=
EXTT12=
EXTT13=
EXTT14=
EXTT15=
EXTT16=
EXTT17=
PLAYORDER=
